{"title":"Kennedy.2015.08.25.WS.SDTV.x264-XAiO","uid":12367520,"size":388777673,"categoryP":"video","categoryS":"tv_shows","magnet":"?xt=urn:btih:9c15cea9c4855110cdc1a1e9d8e0417417ce3bec&amp;dn=Kennedy.2015.08.25.WS.SDTV.x264-XAiO&amp;tr=udp%3A%2F%2Ftracker.openbittorrent.com%3A80&amp;tr=udp%3A%2F%2Fopen.demonii.com%3A1337&amp;tr=udp%3A%2F%2Ftracker.coppersurfer.tk%3A6969&amp;tr=udp%3A%2F%2Fexodus.desync.com%3A6969","seeders":0,"leechers":0,"uploader":"Reive","files":1,"time":1441619826,"description":"&quot;Kennedy&quot; is a news panel show hosted by Kennedy Montgomery. Kennedy Montgomery is a libertarian that you may recognize from 90's MTV, Stossel, and the Independents.\n\n_,-'2_,-'2_,-'2_,-'2_,-'2_,-'2_,-'2_,-'2_,-'2_,-'2\n\nNo episode Monday.\n\nKennedy does her monologue and Good ol' Biden. He's still on watch as a potential Presidential contender. There are still donors out there unhappy with the current offerings. On top of that he recently had a meeting with Elizabeth Warren that's god some tongues wagging.\n\n\nWe're joined by (woot) BONNIE McFARLANE, JAMIE WEINSTEIN, and GUY BENSON on our party panel. They continue to discuss a potential Biden-Warren ticket. Afterwards - Hillary's troubles in regards to her emails continue to mount. Can she survive the FBI probe?\n\nFormer congressman and doctor RON PAUL is here via satellite to talk about Wall Streets recent losses and the Federal Reserve. They also discuss Rand Paul.\n\nThe panel returns. First up - the Ashley Madison hack and the fallout created by it's leak. \n\nK-Walking! Real or fake? Did a real politian say that.. or was it a fiction character?\n\nWe get more panel play as they talk about Kennedy's K-Walking segment. College kids put up crude sign.\n\nA segment about ghosts or some jazz. There's some guys she interviews but I'm too spooked to write it down to be honest. *Mocking oOoOOoOo ghost sound*\n\nNightcap: Most honest city vs most dishonest city. The shining city on a hill is covered in mud.\n\n_,-'2_,-'2_,-'2_,-'2_,-'2_,-'2_,-'2_,-'2_,-'2_,-'2\n\nGeneral\nComplete name                            : Kennedy.2015.08.25.WS.SDTV.x264-XAiO.mp4\nFormat                                   : MPEG-4\nFormat profile                           : Base Media\nCodec ID                                 : isom\nFile size                                : 371 MiB\nDuration                                 : 42mn 3s\nOverall bit rate                         : 1 232 Kbps\nWriting application                      : Lavf56.25.101\n\nVideo\nID                                       : 1\nFormat                                   : AVC\nFormat/Info                              : Advanced Video Codec\nFormat profile                           : High@L3\nFormat settings, CABAC                   : Yes\nFormat settings, ReFrames                : 4 frames\nCodec ID                                 : avc1\nCodec ID/Info                            : Advanced Video Coding\nDuration                                 : 42mn 3s\nBit rate                                 : 1 094 Kbps\nWidth                                    : 624 pixels\nHeight                                   : 352 pixels\nDisplay aspect ratio                     : 16:9\nFrame rate mode                          : Variable\nFrame rate                               : 29.970 fps\nMinimum frame rate                       : 9.990 fps\nMaximum frame rate                       : 29.970 fps\nColor space                              : YUV\nChroma subsampling                       : 4:2:0\nBit depth                                : 8 bits\nScan type                                : Progressive\nBits/(Pixel*Frame)                       : 0.166\nStream size                              : 329 MiB (89%)\nWriting library                          : x264 core 142 r2389 956c8d8\nEncoding settings                        : cabac=1 / ref=3 / deblock=1:0:0 / analyse=0x3:0x133 / me=hex / subme=7 / psy=1 / psy_rd=1.00:0.00 / mixed_ref=1 / me_range=16 / chroma_me=1 / trellis=1 / 8x8dct=1 / cqm=0 / deadzone=21,11 / fast_pskip=1 / chroma_qp_offset=-2 / threads=6 / lookahead_threads=1 / sliced_threads=0 / nr=0 / decimate=1 / interlaced=0 / bluray_compat=0 / constrained_intra=0 / bframes=3 / b_pyramid=2 / b_adapt=1 / b_bias=0 / direct=1 / weightb=1 / open_gop=0 / weightp=2 / keyint=250 / keyint_min=25 / scenecut=40 / intra_refresh=0 / rc_lookahead=40 / rc=crf / mbtree=1 / crf=20.0 / qcomp=0.60 / qpmin=10 / qpmax=51 / qpstep=4 / ip_ratio=1.40 / aq=1:1.00\n\nAudio\nID                                       : 2\nFormat                                   : AAC\nFormat/Info                              : Advanced Audio Codec\nFormat profile                           : LC\nCodec ID                                 : 40\nDuration                                 : 42mn 3s\nBit rate mode                            : Constant\nBit rate                                 : 128 Kbps\nChannel(s)                               : 2 channels\nChannel positions                        : Front: L R\nSampling rate                            : 48.0 KHz\nCompression mode                         : Lossy\nStream size                              : 38.5 MiB (10%)\nLanguage                                 : unk","torrent":{"xt":"urn:btih:9c15cea9c4855110cdc1a1e9d8e0417417ce3bec","amp;dn":"Kennedy.2015.08.25.WS.SDTV.x264-XAiO","amp;tr":["udp%3A%2F%2Ftracker.openbittorrent.com%3A80","udp%3A%2F%2Fopen.demonii.com%3A1337","udp%3A%2F%2Ftracker.coppersurfer.tk%3A6969","udp%3A%2F%2Fexodus.desync.com%3A6969"],"infoHash":"9c15cea9c4855110cdc1a1e9d8e0417417ce3bec","infoHashBuffer":{"type":"Buffer","data":[156,21,206,169,196,133,81,16,205,193,161,233,216,224,65,116,23,206,59,236]},"announce":[],"urlList":[]}}